<?xml version="1.0" encoding="UTF-8" standalone="no"?>
<svg
   xmlns:dc="http://purl.org/dc/elements/1.1/"
   xmlns:cc="http://creativecommons.org/ns#"
   xmlns:rdf="http://www.w3.org/1999/02/22-rdf-syntax-ns#"
   xmlns:svg="http://www.w3.org/2000/svg"
   xmlns="http://www.w3.org/2000/svg"
   xmlns:sodipodi="http://sodipodi.sourceforge.net/DTD/sodipodi-0.dtd"
   xmlns:inkscape="http://www.inkscape.org/namespaces/inkscape"
   inkscape:version="1.0 (4035a4fb49, 2020-05-01)"
   sodipodi:docname="telegram.svg"
   id="svg3578"
   version="1.1"
   viewBox="0 0 24 24"
   role="img"
   aria-labelledby="simpleicons-telegram-icon">
  <metadata
     id="metadata3584">
    <rdf:RDF>
      <cc:Work
         rdf:about="">
        <dc:format>image/svg+xml</dc:format>
        <dc:type
           rdf:resource="http://purl.org/dc/dcmitype/StillImage" />
      </cc:Work>
    </rdf:RDF>
  </metadata>
  <defs
     id="defs3582" />
  <sodipodi:namedview
     inkscape:current-layer="svg3578"
     inkscape:window-maximized="1"
     inkscape:window-y="0"
     inkscape:window-x="0"
     inkscape:cy="12"
     inkscape:cx="12"
     inkscape:zoom="20.083333"
     showgrid="false"
     id="namedview3580"
     inkscape:window-height="704"
     inkscape:window-width="1297"
     inkscape:pageshadow="2"
     inkscape:pageopacity="0"
     guidetolerance="10"
     gridtolerance="10"
     objecttolerance="10"
     borderopacity="1"
     bordercolor="#666666"
     pagecolor="#ffffff" />
  <title
     id="simpleicons-telegram-icon">Telegram icon</title>
  <path
     style="fill:#86cced;fill-opacity:1"
     id="path3572"
     d="M9.028 20.837c-.714 0-.593-.271-.839-.949l-2.103-6.92L22.263 3.37" />
  <path
     style="fill:#14638a;fill-opacity:1"
     id="path3574"
     d="M9.028 20.837c.552 0 .795-.252 1.105-.553l2.941-2.857-3.671-2.214" />
  <path
     style="fill:#2ca5e0;fill-opacity:1"
     id="path3576"
     d="M9.403 15.213l8.89 6.568c1.015.56 1.748.271 2-.942l3.62-17.053c.372-1.487-.564-2.159-1.534-1.72L1.125 10.263c-1.45.582-1.443 1.392-.264 1.753l5.455 1.7L18.94 5.753c.595-.36 1.143-.167.694.232" />
</svg>
